<svg version="1.1" id="Layer_1" xmlns="http://www.w3.org/2000/svg" xmlns:xlink="http://www.w3.org/1999/xlink" x="0px" y="0px"
	 width="30px" height="30px" viewBox="0 0 64 64" style="enable-background:new 0 0 64 64;" xml:space="preserve">
<style type="text/css">
	.st0{fill:#C8C8C8;stroke:#C8C8C8;stroke-width:5;stroke-linecap:round;stroke-linejoin:round;stroke-miterlimit:10;}
	.st1{fill:#FFFFFF;}
	.st2{fill:none;stroke:#C8C8C8;stroke-width:5;stroke-linecap:round;stroke-linejoin:round;stroke-miterlimit:10;}
</style>
<rect x="14.1" y="4.7" class="st0" width="45" height="45"/>
<path class="st1" d="M33,38.6H20.6c-2.3,0.1-4,1.6-3.9,3.3c0.1,1.6,1.8,2.8,3.9,2.9H33c2.3,0.1,4.2-1.2,4.4-2.9
	c0.1-1.7-1.6-3.2-3.9-3.3C33.3,38.6,33.2,38.6,33,38.6z"/>
<path class="st1" d="M53,9H20.6c-2.2,0.1-3.9,1.6-3.8,3.4c0.1,1.6,1.8,2.9,3.8,3h32.4c2.2-0.1,3.9-1.6,3.8-3.4
	C56.6,10.4,55,9.1,53,9z"/>
<polyline class="st2" points="5.8,7.1 5.8,59.8 57.9,59.8 "/>
<path class="st1" d="M52.5,23.4H20.1c-2.2,0.1-3.9,1.6-3.8,3.4c0.1,1.6,1.8,2.9,3.8,3h32.4c2.2-0.1,3.9-1.6,3.8-3.4
	C56.2,24.8,54.6,23.5,52.5,23.4z"/>
</svg>
