<svg version="1.1" id="Capa_1" xmlns="http://www.w3.org/2000/svg" xmlns:xlink="http://www.w3.org/1999/xlink" x="0px" y="0px"
	 width="40px" height="40px" viewBox="0 0 881 881" style="enable-background:new 0 0 881 881;" xml:space="preserve">
<style type="text/css">
	.st0{fill:#64C4ED;}
</style>
<path class="st0" d="M278.3,755c0,16.6,13.4,30,30,30h264.3c16.6,0,30-13.4,30-30v-40.7H278.3L278.3,755L278.3,755z"/>
<path class="st0" d="M762.6,442.7H580.8c-6.3,0-11.9-4-14.1-9.9l-30-82.7L457,517.9c-5.2,11-20.7,11.5-26.6,0.9l-58.3-104.3
	L360.7,435c-2.6,4.8-7.7,7.7-13.1,7.7H118.2v118.4h644.4L762.6,442.7L762.6,442.7z"/>
<path class="st0" d="M358.8,338.6c5.7-10.3,20.5-10.3,26.2,0l56,100.1l86.3-181.6c5.7-12,23.1-11.2,27.6,1.3l49.3,135.8h158.4v-180
	H118.2v180h209.7L358.8,338.6z"/>
<path class="st0" d="M29.9,679.4h248.4h324.3H851c16.6,0,30-13.4,30-30V126c0-16.6-13.4-30-30-30H30c-16.6,0-30,13.4-30,30v523.3
	C-0.1,665.9,13.4,679.4,29.9,679.4z M86.2,202.3c0-11,9-20,20-20h668.4c11,0,20,9,20,20v370.8c0,11-9,20-20,20H106.2
	c-11,0-20-9-20-20C86.2,573.1,86.2,202.3,86.2,202.3z"/>
</svg>
