<svg version="1.1" id="Capa_1" xmlns="http://www.w3.org/2000/svg" xmlns:xlink="http://www.w3.org/1999/xlink" x="0px" y="0px"
	 width="40px" height="40px" viewBox="0 0 896 896" style="enable-background:new 0 0 896 896;" xml:space="preserve">
<style type="text/css">
	.st0{fill:#64C4ED;}
</style>
<path class="st0" d="M615.5,0h-335c-16.6,0-30,13.4-30,30v146.3h-72.6c-16.6,0-30,13.4-30,30V866c0,16.6,13.4,30,30,30h188v-36.8
	c0-16.6,13.4-30,30-30h104.2c16.6,0,30,13.4,30,30V896h188c16.6,0,30-13.4,30-30V206.3c0-16.6-13.4-30-30-30h-72.6V30
	C645.5,13.4,632.1,0,615.5,0z M365.9,739.4c0,16.6-13.4,30-30,30h-94.7c-16.6,0-30-13.4-30-30v-28.1c0-16.6,13.4-30,30-30h94.7
	c16.6,0,30,13.4,30,30V739.4L365.9,739.4z M365.9,586.9c0,16.6-13.4,30-30,30h-94.7c-16.6,0-30-13.4-30-30v-28.1
	c0-16.6,13.4-30,30-30h94.7c16.6,0,30,13.4,30,30V586.9L365.9,586.9z M365.9,434.4c0,16.6-13.4,30-30,30h-94.7
	c-16.6,0-30-13.4-30-30v-28.1c0-16.6,13.4-30,30-30h94.7c16.6,0,30,13.4,30,30V434.4L365.9,434.4z M529.9,297.9
	c-16.6,0-30-13.4-30-30v-50.7H396.1v50.7c0,16.6-13.4,30-30,30h-21.8c-16.6,0-30-13.4-30-30V84.7c0-16.6,13.4-30,30-30h21.8
	c16.6,0,30,13.4,30,30v50.7h103.8V84.7c0-16.6,13.4-30,30-30h21.8c16.6,0,30,13.4,30,30v183.2c0,16.6-13.4,30-30,30H529.9z
	 M684.8,739.4c0,16.6-13.4,30-30,30h-94.7c-16.6,0-30-13.4-30-30v-28.1c0-16.6,13.4-30,30-30h94.7c16.6,0,30,13.4,30,30L684.8,739.4
	L684.8,739.4z M684.8,586.9c0,16.6-13.4,30-30,30h-94.7c-16.6,0-30-13.4-30-30v-28.1c0-16.6,13.4-30,30-30h94.7
	c16.6,0,30,13.4,30,30L684.8,586.9L684.8,586.9z M654.8,376.3c16.6,0,30,13.4,30,30v28.1c0,16.6-13.4,30-30,30h-94.7
	c-16.6,0-30-13.4-30-30v-28.1c0-16.6,13.4-30,30-30H654.8z"/>
</svg>
