<svg version="1.1" id="Layer_1" xmlns="http://www.w3.org/2000/svg" xmlns:xlink="http://www.w3.org/1999/xlink" x="0px" y="0px"
	 width="30px" height="30px" viewBox="0 0 64 64" style="enable-background:new 0 0 64 64;" xml:space="preserve">
<style type="text/css">
	.st0{fill:#64C4ED;}
</style>
<path class="st0" d="M32,64c17.7,0,32-14.3,32-32C64,14.4,49.7,0,32,0S0,14.3,0,32c0,0,0,0,0,0C0,49.7,14.3,64,32,64z M32,10
	c5.5,0,10,4.5,10,10s-4.5,10-10,10s-10-4.5-10-10S26.5,10,32,10z M32,32.9c16.6,0,24.2,12.2,24.2,12.2S48.6,59.5,32,59.5
	S7.8,45.2,7.8,45.2S15.4,32.9,32,32.9z"/>
</svg>
