<svg version="1.1" id="Layer_1" xmlns="http://www.w3.org/2000/svg" xmlns:xlink="http://www.w3.org/1999/xlink" x="0px" y="0px"
	 width="30px" height="30px" viewBox="0 0 64 64" style="enable-background:new 0 0 64 64;" xml:space="preserve">
<style type="text/css">
	.st0{fill:#64C4ED;}
	.st1{fill:none;stroke:#64C4ED;stroke-width:5;stroke-linecap:round;stroke-linejoin:round;stroke-miterlimit:10;}
</style>
<path class="st0" d="M0.8,26.4c1-1,2.6-1,3.6,0.1l3.4,3.7C9.1,13.9,22.6,1.9,38.1,3.2s27,15.4,25.8,31.6S49.1,63,33.6,61.7
	c-6.8-0.6-13.1-3.7-17.8-8.7c-1-1.1-0.9-2.8,0.1-3.8c1-1,2.6-1,3.6,0c8.9,9.4,23.5,9.6,32.5,0.3s9.2-24.4,0.3-33.9
	s-23.5-9.6-32.5-0.3c-3.8,3.9-6.2,9.1-6.8,14.7l3.2-3.3c1-1.1,2.6-1.1,3.6-0.1c1,1,1,2.7,0,3.8c0,0,0,0,0,0.1l-7.7,8
	c-0.5,0.5-1.1,0.8-1.8,0.8l0,0c-0.7,0-1.3-0.3-1.8-0.8l-7.7-8.3C-0.2,29.1-0.2,27.4,0.8,26.4C0.8,26.4,0.8,26.4,0.8,26.4z"/>
<polyline class="st1" points="34.9,19.8 34.9,33.7 46.9,41 "/>
</svg>
